# xmcd
#
# Track frame offsets:
#       150
#       2213
#       14627
#       25091
#       37225
#       50875
#       60605
#       70779
#       81739
#       93788
#       104190
#       115511
#       126349
#       138014
#       147973
#       159991
#       172148
#       183208
#       194859
#       206362
#       217762
#       228723
#       239428
#       251029
#       261531
#       272895
#       283234
#       294473
#       304643
#       318190
#       329888
#       339754
#       350542
#
# Disc length: 4799 seconds
#
# Revision: 0
# Processed by: cddbd v1.5.2PL0 Copyright (c) Steve Scherf et al.
# Submitted via: WaveLab 4.01
#
DISCID=0c12bd21
DTITLE=SUPERMARK XXCLUSIVE - FOREVER
DYEAR=1900
DGENRE=
TTITLE0=SUPER COMMERCIAL5 - SOMETHING IN MY HEAR 2
TTITLE1=001 - SLOW LOVE-DOC BOX_ B FRESH -
TTITLE2=002 - COME OVER-COLLIN ENGLAND -
TTITLE3=003 - NEW LIFE-THE AFFAIR -
TTITLE4=004 - OLD SCHOOL LOVIN-CHANTE MOORE -
TTITLE5=005 - MY NIGHT FOR LOVE -GEORGE PETTUS -
TTITLE6=006 - I LIKE -KUT KLOSE -
TTITLE7=007 - SEX IN OMN MY MIND -BLULIGHT -
TTITLE8=008 - GOTTA GET BACK WIT YOU-MIND HEART SOUL -
TTITLE9=009 - TASTY LOVIN- LO-KEY -
TTITLE10=010 - MY LOVE IS THE SHHH-TRINA and TAMARA -
TTITLE11=011 - FROM THE FOOL-IV XAMPLE -
TTITLE12=012 - TRIP AROUND YOUR BODY-EBONY VIBE -
TTITLE13=013 - BUMP N GRIND-R KELLY -
TTITLE14=014 - THERE IS SOMETHING WRONG-ASHANTI -
TTITLE15=015 - SOMETHING IN MY HEART- MICHEL LE -
TTITLE16=016 - RODEO STYLE-JAMECIA -
TTITLE17=017 - THERE WILL NEVER BE-N2U -
TTITLE18=018 - DREAMS-SHAWN PITTMAN -
TTITLE19=019 - DO UNTO ME-KARYN WHITE -
TTITLE20=020 - LETS JUST RUNNAWAY-JOHNNY GILL -
TTITLE21=021 - ALWAYS -TROOP -
TTITLE22=022 - I MISS U-JOE PUBLIC -
TTITLE23=023 - CAN YOU WAIT-GEORGE PETTUS -
TTITLE24=024 - NEVER BEEN IN LOVE LIKE THIS-MARVA HICKS -
TTITLE25=025 - THE HUMP IS ON-J LITTLE -
TTITLE26=026 - JUST ROLL-FABU -
TTITLE27=027 - TURN OUT THE LIGHTS-JOYCELYN BROWN_OLIVER CHEATHAM -
TTITLE28=028 - ALWAYS-KIARA -
TTITLE29=029 - CRUISIN-DANGELO -
TTITLE30=030 - IS THIS WHAT YOU WANT-HAREM -
TTITLE31=031 - MY SUGAR -ATLANTIC STARR -
TTITLE32=032 - WHAT EVER IT TAKES-AL JONES -
EXTD=
EXTT0=
EXTT1=
EXTT2=
EXTT3=
EXTT4=
EXTT5=
EXTT6=
EXTT7=
EXTT8=
EXTT9=
EXTT10=
EXTT11=
EXTT12=
EXTT13=
EXTT14=
EXTT15=
EXTT16=
EXTT17=
EXTT18=
EXTT19=
EXTT20=
EXTT21=
EXTT22=
EXTT23=
EXTT24=
EXTT25=
EXTT26=
EXTT27=
EXTT28=
EXTT29=
EXTT30=
EXTT31=
EXTT32=
PLAYORDER=
